<mxfile host="app.diagrams.net" modified="2024-05-17T19:56:10.649Z" agent="Mozilla/5.0 (Windows NT 10.0; Win64; x64) AppleWebKit/537.36 (KHTML, like Gecko) Chrome/124.0.0.0 Safari/537.36" etag="OE9Tjr5eTHZmH7B-5c_g" version="24.4.4" type="github">
  <diagram name="Страница — 1" id="pP-laetA142IMWRliaNE">
    <mxGraphModel dx="1434" dy="772" grid="1" gridSize="10" guides="1" tooltips="1" connect="1" arrows="1" fold="1" page="1" pageScale="1" pageWidth="827" pageHeight="1169" math="0" shadow="0">
      <root>
        <mxCell id="0" />
        <mxCell id="1" parent="0" />
        <mxCell id="u99RZKvLeM4qgcAk4blY-2" value="" style="rounded=0;whiteSpace=wrap;html=1;" vertex="1" parent="1">
          <mxGeometry x="520" y="150" width="220" height="160" as="geometry" />
        </mxCell>
        <mxCell id="u99RZKvLeM4qgcAk4blY-9" style="edgeStyle=orthogonalEdgeStyle;rounded=0;orthogonalLoop=1;jettySize=auto;html=1;exitX=1;exitY=0.5;exitDx=0;exitDy=0;entryX=0;entryY=0.5;entryDx=0;entryDy=0;" edge="1" parent="1" source="u99RZKvLeM4qgcAk4blY-3" target="u99RZKvLeM4qgcAk4blY-2">
          <mxGeometry relative="1" as="geometry" />
        </mxCell>
        <mxCell id="u99RZKvLeM4qgcAk4blY-3" value="&lt;div&gt;public class MultiThreading extends Thread {&lt;/div&gt;&lt;div&gt;&amp;nbsp; &amp;nbsp; public void run() {&lt;/div&gt;&lt;div&gt;&amp;nbsp; &amp;nbsp; &amp;nbsp; &amp;nbsp; System.out.println(&quot;Потік виконується.&quot;);&lt;/div&gt;&lt;div&gt;&amp;nbsp; &amp;nbsp; }&lt;/div&gt;&lt;div&gt;}&lt;/div&gt;&lt;div&gt;&lt;br&gt;&lt;/div&gt;&lt;div&gt;&lt;div&gt;public class Main {&lt;/div&gt;&lt;div&gt;&amp;nbsp; &amp;nbsp; public static void main(String[] args) {&lt;/div&gt;&lt;div&gt;&amp;nbsp; &amp;nbsp; &amp;nbsp; &amp;nbsp; MultiThreading thread = new MultiThreading();&lt;/div&gt;&lt;div&gt;&amp;nbsp; &amp;nbsp; &amp;nbsp; &amp;nbsp; thread.start();&lt;/div&gt;&lt;div&gt;&amp;nbsp; &amp;nbsp; }&lt;/div&gt;&lt;div&gt;}&lt;/div&gt;&lt;/div&gt;&lt;div&gt;&lt;br&gt;&lt;/div&gt;&lt;div&gt;&lt;br&gt;&lt;/div&gt;" style="html=1;align=center;verticalAlign=middle;rounded=0;absoluteArcSize=1;arcSize=10;dashed=0;whiteSpace=wrap;" vertex="1" parent="1">
          <mxGeometry x="20" y="120" width="350" height="220" as="geometry" />
        </mxCell>
        <mxCell id="u99RZKvLeM4qgcAk4blY-7" value="&lt;font style=&quot;font-size: 14px;&quot;&gt;Мультипотік&lt;/font&gt;" style="text;html=1;align=center;verticalAlign=middle;whiteSpace=wrap;rounded=0;" vertex="1" parent="1">
          <mxGeometry x="570" y="160" width="120" height="30" as="geometry" />
        </mxCell>
        <mxCell id="u99RZKvLeM4qgcAk4blY-8" value="&lt;font style=&quot;font-size: 14px;&quot;&gt;+run()&lt;/font&gt;" style="text;html=1;align=center;verticalAlign=middle;whiteSpace=wrap;rounded=0;" vertex="1" parent="1">
          <mxGeometry x="550" y="215" width="60" height="30" as="geometry" />
        </mxCell>
      </root>
    </mxGraphModel>
  </diagram>
</mxfile>
